{"glyphs":{"0":{"ha":833,"x_min":0,"x_max":0,"o":""},"1":{"ha":833,"x_min":0,"x_max":0,"o":""},"2":{"ha":833,"x_min":0,"x_max":0,"o":""},"3":{"ha":833,"x_min":0,"x_max":0,"o":""},"4":{"ha":833,"x_min":0,"x_max":0,"o":""},"5":{"ha":833,"x_min":0,"x_max":0,"o":""},"6":{"ha":833,"x_min":0,"x_max":0,"o":""},"7":{"ha":833,"x_min":0,"x_max":0,"o":""},"8":{"ha":833,"x_min":0,"x_max":0,"o":""},"9":{"ha":833,"x_min":0,"x_max":0,"o":""}," ":{"ha":833,"x_min":0,"x_max":0,"o":""},",":{"ha":833,"x_min":0,"x_max":0,"o":""},"-":{"ha":833,"x_min":0,"x_max":0,"o":""},".":{"ha":833,"x_min":0,"x_max":0,"o":""},"A":{"ha":833,"x_min":28,"x_max":806,"o":"m 28 111 q 32 125 28 119 q 71 231 44 163 q 104 319 97 300 q 159 466 122 368 q 215 613 196 564 q 249 704 226 646 q 279 785 271 763 q 328 818 292 815 l 457 818 q 474 819 463 818 q 491 819 485 819 q 506 817 497 818 q 523 813 515 817 q 538 804 531 810 q 560 763 547 796 q 600 656 571 733 q 644 536 629 579 l 753 247 q 789 150 778 183 q 804 111 803 122 q 802 97 806 103 q 790 90 799 92 q 776 87 782 88 q 759 87 771 86 q 746 88 747 88 l 614 88 q 563 138 578 88 q 560 148 563 139 q 556 160 557 157 q 551 172 554 164 q 546 183 549 179 q 539 193 543 188 q 531 201 535 199 q 520 206 526 204 q 507 207 514 207 q 501 155 515 182 q 464 114 488 128 q 390 104 431 93 q 332 150 349 115 q 324 186 326 163 l 324 200 q 322 207 324 206 q 317 208 319 208 q 312 206 315 207 q 307 206 308 206 q 276 182 286 201 q 266 144 272 174 q 250 104 260 115 q 188 88 236 88 l 65 88 q 46 88 51 88 q 34 94 40 89 q 28 111 28 100 m 449 732 q 419 768 449 764 q 383 742 389 772 q 390 718 381 729 q 411 704 399 707 q 449 732 436 699 m 342 393 q 350 372 340 379 q 375 365 360 365 q 460 365 432 363 q 478 374 472 367 q 484 392 485 381 q 481 414 483 404 q 473 438 478 424 q 467 456 468 453 q 448 520 463 468 q 422 599 433 572 q 403 596 413 621 q 394 566 399 586 q 385 536 389 546 q 365 472 381 524 q 342 393 349 421 m 383 197 q 413 161 383 167 q 449 188 442 156 q 442 213 450 201 q 421 225 433 224 q 383 197 394 229 z "},"B":{"ha":833,"x_min":110,"x_max":776,"o":"m 110 769 q 122 793 117 789 q 144 803 132 803 q 184 804 163 804 q 231 803 206 804 q 271 803 257 803 l 469 803 q 550 801 524 803 q 617 788 576 800 q 686 749 658 775 q 740 638 733 704 q 707 519 747 571 q 665 481 688 494 q 658 477 664 479 q 650 473 653 475 q 644 468 647 471 q 642 463 642 465 q 646 456 642 460 q 672 442 653 450 q 694 432 690 435 q 738 394 721 418 q 775 284 774 349 q 743 171 776 219 q 660 97 708 118 q 540 75 631 85 q 448 70 496 71 q 334 71 400 69 q 242 72 268 72 l 164 72 q 131 75 136 72 q 121 83 125 78 q 115 92 117 89 q 111 104 113 96 q 110 116 110 113 q 110 130 110 119 q 110 142 110 140 l 110 511 l 110 769 m 450 722 q 419 760 450 756 q 395 751 406 761 q 383 728 385 742 q 390 704 382 715 q 413 692 399 693 q 439 700 426 692 q 446 713 443 704 q 450 722 449 721 m 326 621 q 325 598 326 615 q 324 569 324 581 q 327 544 325 558 q 338 524 329 531 q 361 517 347 517 q 390 516 369 517 q 424 515 411 515 q 454 517 438 514 q 483 525 471 519 q 516 563 507 536 q 514 614 525 590 q 425 653 497 653 q 405 653 418 653 q 381 653 392 653 q 360 653 369 653 q 326 621 335 650 m 326 347 l 326 267 q 364 232 328 235 q 388 232 375 232 q 417 232 401 232 q 442 232 433 232 q 503 239 483 232 q 542 276 531 247 q 543 333 554 306 q 440 376 522 376 l 361 376 q 326 347 338 375 m 382 150 q 417 118 389 118 q 440 128 431 119 q 450 151 450 138 q 440 176 450 165 q 415 186 429 186 q 390 174 400 183 q 382 150 389 172 z "},"C":{"ha":833,"x_min":51,"x_max":768,"o":"m 54 511 q 56 539 56 521 q 58 572 57 557 q 63 600 60 588 q 133 761 85 701 q 283 860 188 828 q 463 878 363 885 q 631 831 567 871 q 742 697 697 790 q 725 644 760 656 q 663 630 704 639 q 614 619 622 621 q 556 626 568 610 q 543 647 550 633 q 531 667 536 660 q 383 703 471 731 q 288 576 300 675 q 292 400 275 469 q 400 294 311 307 q 538 351 493 281 q 556 388 550 372 q 571 419 567 415 q 588 426 578 425 q 606 424 599 426 q 627 418 614 422 q 644 413 640 414 q 684 401 647 411 q 738 383 721 390 q 750 318 768 369 q 660 191 721 242 q 519 129 599 140 q 185 192 307 97 q 84 331 117 246 q 54 511 51 417 m 381 800 q 406 760 381 767 q 432 763 419 756 q 447 785 444 771 q 437 817 451 806 q 403 824 422 829 q 381 800 385 819 m 381 219 q 407 178 381 185 q 433 183 421 175 q 447 204 444 190 q 442 230 450 218 q 422 244 435 242 q 381 219 394 253 z "},"D":{"ha":833,"x_min":96,"x_max":776,"o":"m 96 860 q 129 890 104 886 q 169 892 147 892 q 218 891 192 892 q 258 890 244 890 l 422 890 q 632 842 558 890 q 753 663 722 782 q 764 436 776 567 q 667 236 753 318 q 458 158 593 168 l 349 158 l 164 158 q 152 158 161 158 q 139 158 143 158 q 127 159 135 158 q 115 162 119 160 q 106 167 111 164 q 99 176 101 171 q 96 190 96 182 l 96 263 l 96 629 l 96 860 m 450 803 q 422 839 450 832 q 397 833 408 842 q 382 810 385 825 q 390 785 381 796 q 413 772 400 775 q 437 780 426 771 q 450 803 447 789 m 322 697 l 322 686 l 322 382 q 322 375 322 381 q 322 367 322 369 q 322 360 322 365 q 323 352 322 354 q 324 346 324 350 q 326 340 325 342 q 331 334 328 338 q 335 329 333 331 q 342 326 338 328 q 350 324 346 324 q 463 333 406 317 q 542 486 533 358 q 536 597 546 536 q 490 694 525 665 q 379 725 458 719 q 322 697 331 728 m 382 246 q 413 207 382 214 q 435 214 425 206 q 449 235 446 222 q 444 260 451 249 q 424 275 438 272 q 382 246 400 279 z "},"E":{"ha":833,"x_min":126,"x_max":736,"o":"m 126 833 q 157 846 131 846 l 683 846 q 721 840 715 846 q 725 818 725 836 l 725 747 q 726 731 725 744 q 726 710 726 717 q 722 694 726 703 q 710 682 718 686 q 689 679 706 679 l 631 679 q 547 680 601 679 q 449 681 493 681 q 367 679 406 681 q 349 671 351 679 q 349 642 347 663 q 348 629 349 639 q 348 613 347 619 q 349 597 349 606 q 354 584 350 589 q 365 578 358 579 l 389 578 l 449 578 l 608 578 l 665 578 l 685 578 q 697 566 693 575 q 700 549 700 557 q 699 526 700 540 q 699 511 699 513 l 700 481 q 699 449 700 449 q 689 432 696 436 q 669 431 686 431 l 618 431 l 463 431 q 433 431 453 431 q 398 432 414 432 q 368 431 382 432 q 357 426 361 429 q 351 417 353 424 q 349 407 350 411 q 349 394 349 403 q 350 382 350 385 l 350 314 q 357 297 353 301 q 375 294 363 294 l 419 294 l 574 294 l 703 294 q 736 278 733 294 l 736 231 l 736 156 q 718 124 736 125 l 653 124 l 511 124 l 208 124 l 144 124 q 126 146 129 125 q 126 210 126 176 q 126 287 126 244 q 126 353 126 329 l 126 833 m 386 771 q 399 743 385 753 q 429 739 413 733 q 449 764 446 744 q 442 786 451 775 q 421 799 433 797 q 386 771 393 801 m 386 203 q 399 174 385 183 q 429 169 413 164 q 449 194 446 175 q 442 217 450 207 q 421 229 433 228 q 386 203 394 233 z "},"F":{"ha":833,"x_min":136,"x_max":700,"o":"m 136 832 q 158 853 140 850 q 217 854 164 854 l 354 854 l 642 854 q 689 849 681 854 q 699 819 699 840 l 699 750 q 699 735 699 746 q 700 718 700 725 q 699 702 700 711 q 692 688 697 693 q 679 679 688 682 q 654 678 676 678 l 594 678 l 438 678 q 422 678 435 678 q 403 679 410 679 q 387 676 396 679 q 374 669 378 674 q 365 632 365 663 q 368 582 365 588 q 381 572 372 575 q 395 567 389 568 q 415 567 401 567 q 431 568 428 568 l 582 568 l 643 568 q 667 567 660 568 q 683 552 678 564 q 690 531 689 540 q 689 504 690 522 q 688 483 688 486 q 688 472 688 481 q 688 460 688 464 q 687 449 688 456 q 684 438 686 442 q 679 428 682 433 q 671 422 676 424 q 658 419 665 419 q 628 418 644 418 q 591 419 611 418 q 560 419 571 419 l 414 419 q 365 397 369 419 l 365 347 l 365 289 q 393 303 376 299 q 476 286 436 315 q 510 228 504 267 q 496 161 515 190 q 393 124 458 106 q 380 130 389 125 q 367 136 371 135 q 363 135 364 136 q 361 131 363 133 q 357 126 360 129 q 339 118 351 121 l 268 118 l 171 118 q 138 139 143 118 q 136 164 136 147 l 136 542 l 136 832 m 385 782 q 414 742 385 746 q 437 748 426 739 q 450 769 447 757 q 440 800 454 789 q 407 807 425 811 q 385 782 389 803 m 386 218 q 414 181 386 185 q 438 187 426 178 q 450 208 449 196 q 445 233 453 221 q 424 246 438 244 q 386 218 399 251 z "},"G":{"ha":833,"x_min":58,"x_max":778,"o":"m 58 492 q 69 592 65 576 q 163 771 99 708 q 346 858 236 843 q 551 858 447 874 q 717 767 658 843 q 760 683 756 715 q 758 667 761 674 q 745 656 754 660 q 731 651 736 653 q 711 647 726 649 l 697 644 q 658 638 685 643 q 619 631 632 633 q 581 625 594 625 q 558 633 568 625 q 538 655 549 642 q 522 674 528 668 q 438 705 490 704 q 350 679 386 706 q 276 499 279 631 q 329 311 276 364 q 412 270 361 279 q 504 276 463 261 q 574 317 561 299 q 584 358 588 333 q 557 386 581 382 l 497 386 q 457 390 464 386 q 442 424 442 400 l 442 494 q 478 539 442 535 q 519 540 497 540 q 566 540 540 540 q 606 539 592 539 l 738 539 q 778 501 774 536 l 778 375 q 778 339 778 363 q 778 297 778 315 q 778 261 778 278 q 731 194 775 224 q 642 146 696 172 q 443 108 560 108 q 238 146 324 108 q 103 283 147 186 q 58 492 58 381 m 385 779 q 399 748 383 758 q 432 744 414 738 q 451 772 450 751 q 444 796 453 785 q 424 808 436 807 q 385 779 394 813 m 385 203 q 414 165 385 167 q 439 171 428 163 q 451 193 450 179 q 424 232 456 226 q 385 203 393 238 z "},"H":{"ha":833,"x_min":0,"x_max":0,"o":""},"I":{"ha":833,"x_min":0,"x_max":0,"o":""},"J":{"ha":833,"x_min":0,"x_max":0,"o":""},"K":{"ha":833,"x_min":0,"x_max":0,"o":""},"L":{"ha":833,"x_min":0,"x_max":0,"o":""},"M":{"ha":833,"x_min":0,"x_max":0,"o":""},"N":{"ha":833,"x_min":0,"x_max":0,"o":""},"O":{"ha":833,"x_min":0,"x_max":0,"o":""},"P":{"ha":833,"x_min":0,"x_max":0,"o":""},"Q":{"ha":833,"x_min":0,"x_max":0,"o":""},"R":{"ha":833,"x_min":0,"x_max":0,"o":""},"S":{"ha":833,"x_min":0,"x_max":0,"o":""},"T":{"ha":833,"x_min":0,"x_max":0,"o":""},"U":{"ha":833,"x_min":0,"x_max":0,"o":""},"V":{"ha":833,"x_min":0,"x_max":0,"o":""},"W":{"ha":833,"x_min":0,"x_max":0,"o":""},"X":{"ha":833,"x_min":0,"x_max":0,"o":""},"Y":{"ha":833,"x_min":0,"x_max":0,"o":""},"Z":{"ha":833,"x_min":0,"x_max":0,"o":""},"a":{"ha":833,"x_min":0,"x_max":0,"o":""},"b":{"ha":833,"x_min":0,"x_max":0,"o":""},"c":{"ha":833,"x_min":0,"x_max":0,"o":""},"d":{"ha":833,"x_min":0,"x_max":0,"o":""},"e":{"ha":833,"x_min":0,"x_max":0,"o":""},"f":{"ha":833,"x_min":0,"x_max":0,"o":""},"g":{"ha":833,"x_min":0,"x_max":0,"o":""},"h":{"ha":833,"x_min":0,"x_max":0,"o":""},"i":{"ha":833,"x_min":0,"x_max":0,"o":""},"j":{"ha":833,"x_min":0,"x_max":0,"o":""},"k":{"ha":833,"x_min":0,"x_max":0,"o":""},"l":{"ha":833,"x_min":0,"x_max":0,"o":""},"m":{"ha":833,"x_min":0,"x_max":0,"o":""},"n":{"ha":833,"x_min":0,"x_max":0,"o":""},"o":{"ha":833,"x_min":0,"x_max":0,"o":""},"p":{"ha":833,"x_min":0,"x_max":0,"o":""},"q":{"ha":833,"x_min":0,"x_max":0,"o":""},"r":{"ha":833,"x_min":0,"x_max":0,"o":""},"s":{"ha":833,"x_min":0,"x_max":0,"o":""},"t":{"ha":833,"x_min":0,"x_max":0,"o":""},"u":{"ha":833,"x_min":0,"x_max":0,"o":""},"v":{"ha":833,"x_min":0,"x_max":0,"o":""},"w":{"ha":833,"x_min":0,"x_max":0,"o":""},"x":{"ha":833,"x_min":0,"x_max":0,"o":""},"y":{"ha":833,"x_min":0,"x_max":0,"o":""},"z":{"ha":833,"x_min":0,"x_max":0,"o":""},"£":{"ha":833,"x_min":103,"x_max":724,"o":"m 422 617 q 465 611 450 614 q 625 526 563 592 q 706 363 685 467 q 678 188 724 274 q 551 57 633 101 q 376 24 472 14 q 215 97 281 35 q 122 253 142 167 q 136 429 103 344 q 249 567 171 517 q 422 617 326 617 m 413 163 q 379 128 379 153 q 388 106 378 115 q 410 94 397 96 q 446 125 443 94 q 413 163 447 151 z "},"¥":{"ha":833,"x_min":0,"x_max":0,"o":""},"¸":{"ha":833,"x_min":0,"x_max":0,"o":""}}}
